<?xml version="1.0" encoding="utf-8"?>
<!-- Generator: Adobe Illustrator 24.0.0, SVG Export Plug-In . SVG Version: 6.00 Build 0)  -->
<svg version="1.1" id="Layer_1" xmlns="http://www.w3.org/2000/svg" xmlns:xlink="http://www.w3.org/1999/xlink" x="0px" y="0px"
	 viewBox="0 0 395 343.7" style="enable-background:new 0 0 395 343.7;" xml:space="preserve">
<style type="text/css">
	.st0{fill:#FFCC66;stroke:#231F20;stroke-miterlimit:10;}
	.st1{fill:#2B170C;stroke:#231F20;stroke-miterlimit:10;}
</style>
<g>
	<polyline class="st0" points="154.9,24.9 154.9,16.4 127.9,0.5 113.7,0.5 86.7,16.4 86.7,24.9 	"/>
	<rect x="53.7" y="23.8" class="st0" width="134.1" height="43.1"/>
	<g>
		<rect x="53.7" y="61.5" class="st0" width="134.1" height="5.4"/>
		<circle class="st1" cx="72.8" cy="45.3" r="7.3"/>
		<circle class="st1" cx="168.8" cy="45.3" r="7.3"/>
	</g>
	<rect x="27" y="65.7" class="st0" width="187.7" height="25.5"/>
	<rect x="27" y="86" class="st0" width="187.7" height="5.3"/>
	<g>
		<rect x="14.6" y="90.5" class="st0" width="212.4" height="25.5"/>
		<path class="st0" d="M228.9,116.1v227.2h-62.7v-152c0-12.5-5.1-23.9-13.3-32.1s-19.6-13.3-32.1-13.3c-25.1,0-45.4,20.3-45.4,45.4
			v152H12.7V116.1H228.9z"/>
	</g>
	<g>
		<rect x="12.7" y="116.1" class="st0" width="216.3" height="17.2"/>
		<rect x="12.7" y="203.7" class="st0" width="62.7" height="16.5"/>
		<rect x="166.2" y="203.7" class="st0" width="62.7" height="16.5"/>
	</g>
	<path class="st0" d="M236.1,121H5.5c-2.7,0-5-2.2-5-5s2.2-5,5-5h230.7c2.7,0,5,2.2,5,5S238.9,121,236.1,121z"/>
	<g>
		<circle class="st1" cx="44" cy="160.1" r="11.5"/>
		<circle class="st0" cx="197.6" cy="160.1" r="11.5"/>
	</g>
	<g>
		<path class="st0" d="M82.1,208.6H12.7c-2.7,0-5-2.2-5-5s2.2-5,5-5h69.4c2.7,0,5,2.2,5,5C87.1,206.4,84.8,208.6,82.1,208.6z"/>
	</g>
	<polyline class="st0" points="308.3,25 308.3,16.5 281.3,0.5 267.1,0.5 240.1,16.5 240.1,25 	"/>
	<rect x="207.1" y="23.8" class="st0" width="134.1" height="43.1"/>
	<g>
		<rect x="207.1" y="61.5" class="st0" width="134.1" height="5.4"/>
		<circle class="st1" cx="226.2" cy="45.4" r="7.3"/>
		<circle class="st1" cx="322.2" cy="45.4" r="7.3"/>
	</g>
	<rect x="180.3" y="65.8" class="st0" width="187.7" height="25.5"/>
	<rect x="180.2" y="85.2" class="st0" width="187.7" height="5.3"/>
	<g>
		<rect x="168" y="90.5" class="st0" width="212.4" height="25.5"/>
		<path class="st0" d="M382.3,116.1v227.2h-62.7v-152c0-12.5-5.1-23.9-13.3-32.1c-8.2-8.2-19.6-13.3-32.1-13.3
			c-25.1,0-45.4,20.3-45.4,45.4v152h-62.7V116.1H382.3z"/>
	</g>
	<g>
		<rect x="166.1" y="116.1" class="st0" width="216.3" height="17.2"/>
		<rect x="166.1" y="203.7" class="st0" width="62.7" height="16.5"/>
		<rect x="319.6" y="203.7" class="st0" width="62.7" height="16.5"/>
	</g>
	<path class="st0" d="M389.5,121.1H158.8c-2.7,0-5-2.2-5-5c0-2.7,2.2-5,5-5h230.7c2.7,0,5,2.2,5,5
		C394.5,118.8,392.2,121.1,389.5,121.1z"/>
	<g>
		<circle class="st1" cx="197.4" cy="160.1" r="11.5"/>
		<circle class="st1" cx="350.9" cy="160.1" r="11.5"/>
	</g>
	<g>
		<path class="st0" d="M232,209h-69.4c-2.7,0-5-2.2-5-5c0-2.7,2.2-5,5-5H232c2.7,0,5,2.2,5,5C237,206.8,234.7,209,232,209z"/>
		<path class="st0" d="M382.3,208.6h-69.4c-2.7,0-5-2.2-5-5c0-2.7,2.2-5,5-5h69.4c2.7,0,5,2.2,5,5
			C387.3,206.4,385,208.6,382.3,208.6z"/>
	</g>
</g>
</svg>
